<?xml version="1.0" ?><!DOCTYPE svg  PUBLIC '-//W3C//DTD SVG 1.0//EN'  'http://www.w3.org/TR/2001/REC-SVG-20010904/DTD/svg10.dtd'><svg height="64px" style="shape-rendering:geometricPrecision; text-rendering:geometricPrecision; image-rendering:optimizeQuality; fill-rule:evenodd; clip-rule:evenodd" version="1.0" viewBox="0 0 42000 64002" width="42px" xml:space="preserve" xmlns="http://www.w3.org/2000/svg" xmlns:xlink="http://www.w3.org/1999/xlink"><defs><style type="text/css">
   <![CDATA[
    .fil0 {fill:#27afb7;fill-rule:nonzero}
   ]]>
  </style></defs><g id="Layer_x0020_1"><path class="fil0" d="M11999 0l18002 0c1102,0 2102,451 2825,1174l-2 2c726,726 1176,1728 1176,2823l0 27002c0,1097 -450,2095 -1174,2820l-5 5c-725,724 -1723,1174 -2820,1174l-8001 0 0 2000 11430 0c984,0 1878,403 2523,1048l0 5c645,646 1048,1540 1048,2519l0 1415 1003 -18 -12 -8968 -1019 0 -1000 0 0 -1000 0 -7000 0 -1000 1000 0 4028 0 1000 0 0 1000 0 7000 0 1000 -1000 0 -1017 0 13 9947 1 978 -981 18 -2015 35 0 450c0,980 -403,1873 -1048,2519l0 5c-645,645 -1539,1048 -2523,1048l-11430 0 0 11000 9000 0 1000 0 0 1000 0 4000 -2001 0 0 -3000 -8000 0 0 2999 -2001 0 0 -2999 -8000 0 0 3000 -2001 0 0 -4000 0 -1000 1000 0 9000 0 0 -11000 -11430 0c-984,0 -1878,-403 -2523,-1048l0 -5c-645,-646 -1048,-1539 -1048,-2519l0 -469 -2015 -35 -985 -18 5 -981 50 -9775 -1054 0 -1000 0 0 -1000 0 -7150 0 -1000 1000 0 3999 0 1000 0 0 1000 0 7150 0 1000 -1000 0 -954 0 -45 8799 999 18 0 -1396c0,-979 403,-1873 1048,-2519l0 -5c645,-645 1539,-1048 2523,-1048l11430 0 0 -2000 -8001 0c-1097,0 -2095,-450 -2820,-1174l-5 -5c-724,-725 -1174,-1723 -1174,-2820l0 -27002c0,-1095 450,-2096 1176,-2823l-2 -2c723,-723 1723,-1174 2825,-1174zm28000 26001l-2027 0 0 5000 2027 0 0 -5000zm-36000 0l-1998 0 0 5150 1998 0 0 -5150zm4571 20000l24860 0c430,0 824,-178 1108,-462l2 2c282,-285 459,-679 459,-1111l0 -3857c0,-433 -177,-827 -459,-1111l-2 2c-283,-283 -678,-462 -1108,-462l-24860 0c-430,0 -824,178 -1108,462l-2 -2c-282,285 -459,678 -459,1111l0 3857c0,432 177,827 459,1111l2 -2c283,283 678,462 1108,462zm21431 -44000l-18002 0c-548,0 -1049,227 -1410,588l-5 0c-359,358 -583,859 -583,1410l0 27002c0,552 223,1051 583,1410l5 5c359,360 859,583 1410,583l18002 0c552,0 1051,-223 1410,-583l5 -5c360,-359 583,-859 583,-1410l0 -27002c0,-552 -224,-1052 -583,-1410l-5 0c-361,-361 -862,-588 -1410,-588z"/></g></svg>