<?xml version="1.0" encoding="utf-8"?>
<!-- Generator: Adobe Illustrator 17.0.0, SVG Export Plug-In . SVG Version: 6.00 Build 0)  -->
<!DOCTYPE svg PUBLIC "-//W3C//DTD SVG 1.1//EN" "http://www.w3.org/Graphics/SVG/1.1/DTD/svg11.dtd">
<svg version="1.1" id="Layer_1" xmlns="http://www.w3.org/2000/svg" xmlns:xlink="http://www.w3.org/1999/xlink" x="0px" y="0px"
	 width="18px" height="16px" viewBox="0 0 18 16" enable-background="new 0 0 18 16" xml:space="preserve">
<g>
	<path d="M17.447,6.669l-1.63-0.814l-0.869-2.607C14.813,2.839,14.431,2.564,14,2.564h-3c-0.553,0-1,0.448-1,1v6H1
		c-0.552,0-1,0.447-1,1s0.448,1,1,1h10h6c0.553,0,1-0.447,1-1v-3C18,7.185,17.786,6.839,17.447,6.669z M16,9.564h-4v-5h1.279
		l0.772,2.316c0.083,0.251,0.264,0.459,0.501,0.578L16,8.182V9.564z"/>
	<path d="M1,8.564h7c0.552,0,1-0.448,1-1v-6c0-0.552-0.448-1-1-1H1c-0.552,0-1,0.448-1,1v6C0,8.116,0.448,8.564,1,8.564z M2,2.564h5
		v4H2V2.564z"/>
	<circle cx="14" cy="14.064" r="1.5"/>
	<circle cx="3" cy="14.064" r="1.5"/>
</g>
</svg>
