<?xml version="1.0" encoding="utf-8"?>
<!-- Generator: Adobe Illustrator 17.0.0, SVG Export Plug-In . SVG Version: 6.00 Build 0)  -->
<!DOCTYPE svg PUBLIC "-//W3C//DTD SVG 1.1//EN" "http://www.w3.org/Graphics/SVG/1.1/DTD/svg11.dtd">
<svg version="1.1" id="Layer_1" xmlns="http://www.w3.org/2000/svg" xmlns:xlink="http://www.w3.org/1999/xlink" x="0px" y="0px"
	 width="20px" height="20px" viewBox="0 0 20 20" enable-background="new 0 0 20 20" xml:space="preserve">
<g>
	<path d="M18,8v8H6V8H18 M19,6H5C4.45,6,4,6.45,4,7v10c0,0.55,0.45,1,1,1h14c0.55,0,1-0.45,1-1V7C20,6.45,19.55,6,19,6L19,6z"/>
</g>
<g>
	<path d="M1,14c-0.552,0-1-0.447-1-1V4c0-1.103,0.897-2,2-2h13c0.553,0,1,0.448,1,1s-0.447,1-1,1H2v9C2,13.553,1.552,14,1,14z"/>
</g>
</svg>
