<?xml version="1.0" ?><!DOCTYPE svg  PUBLIC '-//W3C//DTD SVG 1.0//EN'  'http://www.w3.org/TR/2001/REC-SVG-20010904/DTD/svg10.dtd'><svg height="64px" style="shape-rendering:geometricPrecision; text-rendering:geometricPrecision; image-rendering:optimizeQuality; fill-rule:evenodd; clip-rule:evenodd" version="1.0" viewBox="0 0 9659 9661" width="64px" xml:space="preserve" xmlns="http://www.w3.org/2000/svg" xmlns:xlink="http://www.w3.org/1999/xlink"><defs><style type="text/css">
   <![CDATA[
    .fil0 {fill:#27afb7;fill-rule:nonzero}
   ]]>
  </style></defs><g id="Layer_x0020_1"><path class="fil0" d="M1683 978l0 0m6036 0l0 0m-5002 7777l1962 0 0 -8113 -2512 708 1429 2339 2 3 2 3 0 0 2 3 0 0 2 3 0 0 2 3 0 0 1 3 0 1 1 3 0 1 1 3 0 1 1 3 0 1 1 3 0 1 1 3 0 1 1 2 0 1 1 2 0 1 1 3 0 1 1 3 0 1 1 3 0 1 1 3 0 1 1 3 0 1 0 3 0 1 1 3 0 0 1 7 0 0 0 4 0 0 0 3 0 1 0 3 0 1 0 2c-2,497 -204,948 -530,1274l-9 9c-327,323 -777,522 -1271,522 -499,0 -952,-203 -1280,-531l0 0 0 0 0 0c-328,-328 -530,-781 -530,-1280 0,-31 9,-60 26,-84l2 -3 1 -1 1424 -2330c-143,-14 -272,-78 -369,-174l-1 0c-109,-109 -177,-260 -177,-427l302 0c0,83 34,158 89,213l0 0c55,54 130,88 213,88l126 0 48 -78c12,-20 29,-37 50,-50 71,-43 164,-21 207,50l48 78 111 0 2580 -727 0 -329 302 0 0 329 2581 727 109 0 48 -78c12,-20 29,-37 50,-50 71,-43 164,-21 207,50l48 78 127 0c83,0 159,-34 213,-88l0 -1c55,-55 89,-130 89,-213l302 0c0,167 -68,318 -177,427l0 0c-97,97 -227,162 -370,175l1426 2333 2 3 2 3 0 0 2 3 0 0 2 3 0 0 2 3 0 0 1 3 0 1 1 3 0 1 1 3 0 1 1 3 0 1 1 3 0 1 1 3 0 1 1 2 0 1 1 2 0 1 1 3 0 1 1 3 0 1 1 3 0 1 1 3 0 1 1 3 0 1 0 3 0 1 1 3 0 0 1 7 0 0 0 4 0 0 0 3 0 1 0 3 0 1 0 2c-2,497 -204,948 -530,1274l-9 9c-327,323 -777,522 -1271,522 -499,0 -952,-203 -1280,-531l0 0 0 0 0 0c-328,-328 -530,-781 -530,-1280 0,-31 9,-60 26,-84l2 -3 1 -1 1428 -2336 -2511 -707 0 8113 1962 0c125,0 238,51 320,133 82,82 133,195 133,320l0 302 0 151 -151 0 -4830 0 -151 0 0 -151 0 -302c0,-125 51,-238 133,-320 82,-82 195,-133 320,-133zm6522 -5132l-1384 -2264 -16 0 -1384 2264 2783 0zm-325 1218c240,-240 399,-560 435,-916l-3004 0c35,357 195,677 434,916l1 1c273,273 650,441 1067,441 413,0 788,-166 1060,-434l7 -8zm-5712 -1218l-1384 -2264 -16 0 -1384 2264 2783 0zm-325 1218c240,-240 399,-560 435,-916l-3004 0c35,357 195,677 434,916l1 1c273,273 650,441 1067,441 413,0 788,-166 1060,-434l7 -8zm4065 4216l-4227 0c-41,0 -79,17 -106,44 -27,27 -44,65 -44,106l0 151 4528 0 0 -151c0,-41 -17,-79 -44,-106 -27,-27 -65,-44 -106,-44z"/></g></svg>