<?xml version="1.0" encoding="utf-8"?>
<!-- Generator: Adobe Illustrator 17.0.0, SVG Export Plug-In . SVG Version: 6.00 Build 0)  -->
<!DOCTYPE svg PUBLIC "-//W3C//DTD SVG 1.1//EN" "http://www.w3.org/Graphics/SVG/1.1/DTD/svg11.dtd">
<svg version="1.1" id="Layer_1" xmlns="http://www.w3.org/2000/svg" xmlns:xlink="http://www.w3.org/1999/xlink" x="0px" y="0px"
	 width="32px" height="32px" viewBox="0 0 32 32" enable-background="new 0 0 32 32" xml:space="preserve">
<rect fill="none" width="32" height="32"/>
<path d="M1,16c0,0.417,0.202,0.81,0.542,1.051l9.417,6.709c0.219,0.157,0.479,0.24,0.748,0.24C12.42,24,13,23.421,13,22.709V17h17
	c0.552,0,1-0.448,1-1s-0.448-1-1-1H13V9.292C13,8.579,12.42,8,11.707,8c-0.27,0-0.529,0.083-0.75,0.242l-9.415,6.707
	C1.202,15.19,1,15.583,1,16z M3.513,16L11,10.667v10.667L3.513,16z"/>
</svg>
