<?xml version="1.0" encoding="utf-8"?>
<!-- Generator: Adobe Illustrator 17.0.0, SVG Export Plug-In . SVG Version: 6.00 Build 0)  -->
<!DOCTYPE svg PUBLIC "-//W3C//DTD SVG 1.1//EN" "http://www.w3.org/Graphics/SVG/1.1/DTD/svg11.dtd">
<svg version="1.1" id="Layer_1" xmlns="http://www.w3.org/2000/svg" xmlns:xlink="http://www.w3.org/1999/xlink" x="0px" y="0px"
	 width="16px" height="16px" viewBox="0 0 16 16" enable-background="new 0 0 16 16" xml:space="preserve">
<path d="M7,4.5C7,5.875,5.875,7,4.5,7S2,5.875,2,4.5S3.125,2,4.5,2S7,3.125,7,4.5z"/>
<path d="M14,4.5C14,5.875,12.875,7,11.5,7S9,5.875,9,4.5S10.125,2,11.5,2S14,3.125,14,4.5z"/>
<path d="M7,11.5C7,12.875,5.875,14,4.5,14S2,12.875,2,11.5S3.125,9,4.5,9S7,10.125,7,11.5z"/>
<path d="M14,11.5c0,1.375-1.125,2.5-2.5,2.5S9,12.875,9,11.5S10.125,9,11.5,9S14,10.125,14,11.5z"/>
</svg>
