<?xml version="1.0" encoding="utf-8"?>
<!-- Generator: Adobe Illustrator 17.1.0, SVG Export Plug-In . SVG Version: 6.00 Build 0)  -->
<!DOCTYPE svg PUBLIC "-//W3C//DTD SVG 1.1//EN" "http://www.w3.org/Graphics/SVG/1.1/DTD/svg11.dtd">
<svg version="1.1" id="Layer_1" xmlns="http://www.w3.org/2000/svg" xmlns:xlink="http://www.w3.org/1999/xlink" x="0px" y="0px"
	 viewBox="0 0 20 20" enable-background="new 0 0 20 20" xml:space="preserve">
<g>
	<rect opacity="0" fill="none" width="20" height="20"/>
	<g>
		<path d="M10,18c-4.1,0-7.8-2.8-9.9-7.6C0,10.1,0,9.9,0.1,9.6C2.2,4.8,5.9,2,10,2s7.8,2.8,9.9,7.6c0.1,0.3,0.1,0.6,0,0.8
			C17.8,15.2,14.1,18,10,18z M2.1,10c1.8,3.8,4.7,6,7.9,6s6.1-2.2,7.9-6c-1.8-3.8-4.7-6-7.9-6S3.9,6.2,2.1,10z"/>
	</g>
	<path d="M10,7c-1.7,0-3,1.3-3,3s1.3,3,3,3s3-1.3,3-3S11.7,7,10,7z M10,11.5c-0.8,0-1.5-0.7-1.5-1.5S9.2,8.5,10,8.5s1.5,0.7,1.5,1.5
		S10.8,11.5,10,11.5z"/>
</g>
</svg>
