<?xml version="1.0" encoding="utf-8"?>
<!-- Generator: Adobe Illustrator 17.0.0, SVG Export Plug-In . SVG Version: 6.00 Build 0)  -->
<!DOCTYPE svg PUBLIC "-//W3C//DTD SVG 1.1//EN" "http://www.w3.org/Graphics/SVG/1.1/DTD/svg11.dtd">
<svg version="1.1" id="Layer_1" xmlns="http://www.w3.org/2000/svg" xmlns:xlink="http://www.w3.org/1999/xlink" x="0px" y="0px"
	 width="32px" height="32px" viewBox="0 0 32 32" enable-background="new 0 0 32 32" xml:space="preserve">
<rect fill="none" width="32" height="32"/>
<path d="M30.458,14.949l-9.415-6.707C20.822,8.083,20.563,8,20.293,8C19.58,8,19,8.579,19,9.292V15H2c-0.552,0-1,0.448-1,1
	s0.448,1,1,1h17v5.709C19,23.421,19.58,24,20.293,24c0.27,0,0.529-0.083,0.748-0.24l9.417-6.709C30.798,16.81,31,16.417,31,16
	S30.798,15.19,30.458,14.949z M21,21.334V10.667L28.487,16L21,21.334z"/>
</svg>
