<?xml version="1.0" encoding="utf-8"?>
<!DOCTYPE svg PUBLIC "-//W3C//DTD SVG 1.1//EN" "http://www.w3.org/Graphics/SVG/1.1/DTD/svg11.dtd">
<svg id="shop-bag-5" viewBox="0 0 39.92 39.92" xmlns="http://www.w3.org/2000/svg" xmlns:xlink="http://www.w3.org/1999/xlink" x="0px" y="0px"
	 width="39.92px" height="39.92px" enable-background="new 0 0 39.92 39.92" xml:space="preserve">
	<path d="M34.989,0H4.93C3.89,0,3.048,0.843,3.048,1.882v36.157c0,1.037,0.842,1.881,1.882,1.881h30.06 c1.041,0,1.883-0.844,1.883-1.881V1.882C36.87,0.843,36.03,0,34.989,0z M33.107,36.156H6.812V3.764h26.296V36.156z"/>
	<path d="M19.958,25.904c5.274,0,9.565-4.291,9.565-9.565V8.655c0-1.039-0.842-1.882-1.882-1.882c-1.039,0-1.881,0.843-1.881,1.882 v7.684c0,3.199-2.604,5.803-5.803,5.803c-3.199,0-5.802-2.604-5.802-5.803V8.655c0-1.039-0.843-1.882-1.882-1.882 c-1.04,0-1.882,0.843-1.882,1.882v7.684C10.394,21.613,14.685,25.904,19.958,25.904z"/>
</svg>