<?xml version="1.0" encoding="utf-8"?>
<!DOCTYPE svg PUBLIC "-//W3C//DTD SVG 1.1//EN" "http://www.w3.org/Graphics/SVG/1.1/DTD/svg11.dtd">
<svg id="shop-bag-6" viewBox="0 0 583.479 583.479" xmlns="http://www.w3.org/2000/svg" xmlns:xlink="http://www.w3.org/1999/xlink" x="0px" y="0px"
	 width="583.479px" height="583.479px" enable-background="new 0 0 583.479 583.479" xml:space="preserve">
	<g>
		<path d="M46.01,563.595c0.792,7.812,7.37,13.758,15.222,13.758h24.89h205.617h205.617h24.89c7.853,0,14.431-5.943,15.222-13.758 l2.511-24.762L582.91,87.565c0.405-4.255-0.988-8.484-3.842-11.666l-58.03-64.689c-2.901-3.235-7.043-5.083-11.389-5.083h-217.91 H73.829c-4.346,0-8.487,1.848-11.389,5.083L4.41,75.899C1.557,79.08,0.164,83.31,0.568,87.565L43.5,538.833L46.01,563.595z M81.562,46.706c2.902-3.235,7.043-5.083,11.389-5.083h198.788h198.788c4.347,0,8.487,1.849,11.39,5.083l33.035,36.827H291.739 H48.525L81.562,46.706z M291.739,127.395h243.214L498.64,520.62c-0.727,7.871-7.33,13.893-15.235,13.893H291.739H100.074 c-7.905,0-14.509-6.021-15.235-13.893L48.526,127.395H291.739L291.739,127.395z"/>
		<path d="M522.246,577.853H61.232c-8.141,0-14.898-6.107-15.72-14.207l-2.51-24.762L0.07,87.612 c-0.417-4.381,1.03-8.772,3.968-12.047l58.03-64.689c2.993-3.336,7.279-5.25,11.761-5.25h435.82c4.482,0,8.77,1.914,11.761,5.25 l58.03,64.689c2.938,3.276,4.385,7.667,3.968,12.047l-42.932,451.269l-2.512,24.765 C537.146,571.745,530.388,577.853,522.246,577.853z M73.829,6.626c-4.198,0-8.213,1.792-11.017,4.917L4.782,76.233 c-2.752,3.068-4.106,7.181-3.717,11.285l42.932,451.268l2.51,24.759c0.769,7.587,7.099,13.309,14.725,13.309h461.014 c7.626,0,13.956-5.722,14.725-13.309l2.511-24.762l42.931-451.265c0.391-4.103-0.964-8.216-3.716-11.285l-58.03-64.689 c-2.803-3.125-6.818-4.917-11.017-4.917H73.829z M483.404,535.013h-383.33c-8.215,0-14.978-6.168-15.733-14.347L47.978,126.895 h487.523l-0.05,0.546l-36.313,393.225C498.383,528.845,491.619,535.013,483.404,535.013z M49.075,127.895l36.263,392.679 c0.707,7.661,7.042,13.438,14.737,13.438h383.33c7.694,0,14.03-5.777,14.737-13.438l36.264-392.679H49.075z M536.072,84.033 H47.405L81.19,46.372c2.993-3.336,7.279-5.25,11.761-5.25h397.576c4.481,0,8.769,1.914,11.762,5.25L536.072,84.033z M49.646,83.033h484.187L501.545,47.04c-2.804-3.125-6.819-4.917-11.018-4.917H92.951c-4.198,0-8.213,1.792-11.017,4.917 L49.646,83.033z"/>
	</g>
	<g>
		<path d="M291.739,377.952c35.8,0,69.457-13.941,94.771-39.256c25.315-25.314,39.257-58.971,39.257-94.772 c0-11.83-9.591-21.42-21.42-21.42c-11.83,0-21.421,9.59-21.421,21.42c0,50.282-40.906,91.188-91.188,91.188 s-91.188-40.906-91.188-91.188c0-11.83-9.59-21.42-21.42-21.42s-21.42,9.59-21.42,21.42c0,35.8,13.941,69.458,39.256,94.772 C222.282,364.011,255.939,377.952,291.739,377.952z"/>
		<path d="M291.739,378.452c-35.933,0-69.716-13.993-95.125-39.402c-25.409-25.409-39.402-59.192-39.402-95.125 c0-12.087,9.833-21.92,21.92-21.92c12.087,0,21.92,9.833,21.92,21.92c0,50.005,40.683,90.688,90.688,90.688 c50.005,0,90.688-40.683,90.688-90.688c0-12.087,9.834-21.92,21.921-21.92s21.92,9.833,21.92,21.92 c0,35.934-13.994,69.717-39.403,95.125C361.455,364.459,327.673,378.452,291.739,378.452z M179.131,223.004 c-11.535,0-20.92,9.385-20.92,20.92c0,35.667,13.889,69.199,39.109,94.418c25.221,25.22,58.752,39.109,94.418,39.109 s69.198-13.89,94.418-39.109c25.221-25.22,39.11-58.751,39.11-94.418c0-11.535-9.385-20.92-20.92-20.92 c-11.536,0-20.921,9.385-20.921,20.92c0,50.557-41.131,91.688-91.688,91.688c-50.557,0-91.688-41.131-91.688-91.688 C200.051,232.389,190.667,223.004,179.131,223.004z"/>
	</g>
</svg>