<?xml version="1.0" encoding="utf-8"?>
<!DOCTYPE svg PUBLIC "-//W3C//DTD SVG 1.1//EN" "http://www.w3.org/Graphics/SVG/1.1/DTD/svg11.dtd">
<svg id="shop-bag" viewBox="0 0 330 330" xmlns="http://www.w3.org/2000/svg" xmlns:xlink="http://www.w3.org/1999/xlink" x="0px" y="0px"
	 width="330px" height="330px" enable-background="new 0 0 330 330" xml:space="preserve">
	<path d="M289.937,313.526l-9.964-219.233c-0.364-8.012-6.965-14.319-14.984-14.319h-45V55.001c0-30.328-24.673-55.001-55-55.001 c-30.327,0-55,24.673-55,55.001v24.973h-45c-8.02,0-14.621,6.308-14.984,14.319l-10,220.026c-0.186,4.092,1.31,8.082,4.14,11.044 c2.83,2.961,6.748,4.637,10.845,4.637h220c0.009,0,0.014,0,0.02,0c8.284,0,15-6.716,15-15 C290.008,314.503,289.984,314.011,289.937,313.526z M139.988,55.001c0-13.785,11.215-25.001,25-25.001 c13.785,0,25,11.216,25,25.001v24.973h-50V55.001z M70.685,300l8.637-190.026h30.666v15c0,8.284,6.716,15,15,15s15-6.716,15-15 v-15h50v15c0,8.284,6.716,15,15,15s15-6.716,15-15v-15h30.666L259.291,300H70.685z"/>
</svg>