<?xml version="1.0" encoding="utf-8"?>
<!DOCTYPE svg PUBLIC "-//W3C//DTD SVG 1.1//EN" "http://www.w3.org/Graphics/SVG/1.1/DTD/svg11.dtd">
<svg id="shop-bag-4" viewBox="0 0 512 512" xmlns="http://www.w3.org/2000/svg" xmlns:xlink="http://www.w3.org/1999/xlink" x="0px" y="0px"
	 width="512px" height="512px" enable-background="new 0 0 512 512" xml:space="preserve">
	<g>
		<g>
		<path d="M459.078,486.155L429.07,156.034c-1.057-11.634-10.814-20.543-22.496-20.543h-67.765V82.824 C338.809,37.155,301.654,0,255.985,0s-82.824,37.155-82.824,82.824v52.668h-67.765c-11.683,0-21.438,8.909-22.496,20.543 L52.783,487.367c-0.574,6.32,1.538,12.591,5.816,17.277C62.88,509.33,68.934,512,75.279,512h361.412c0.012,0,0.024,0,0.03,0 c12.476,0,22.588-10.114,22.588-22.588C459.31,488.306,459.23,487.218,459.078,486.155z M218.338,82.824 c0-20.759,16.888-37.647,37.647-37.647c20.759,0,37.647,16.888,37.647,37.647v52.668h-75.294V82.824z M100.015,466.824 l26.011-286.155h259.921l26.01,286.155H100.015z"/>
		</g>
	</g>
	<g>
		<g>
		<path d="M211.727,217.404c-4.215-4.201-10.029-6.626-15.977-6.626c-5.948,0-11.761,2.424-15.977,6.626 c-4.201,4.201-6.611,10.014-6.611,15.977c0,5.933,2.409,11.761,6.611,15.962c4.216,4.201,10.029,6.611,15.977,6.611 c5.948,0,11.761-2.409,15.977-6.611c4.201-4.201,6.611-10.014,6.611-15.962C218.338,227.418,215.929,221.606,211.727,217.404z"/>
		</g>
	</g>
	<g>
		<g>
		<path d="M332.197,217.404c-4.215-4.201-10.026-6.626-15.976-6.626c-5.948,0-11.776,2.424-15.977,6.626 c-4.201,4.201-6.611,10.029-6.611,15.977c0,5.933,2.409,11.761,6.611,15.962c4.201,4.201,10.029,6.611,15.977,6.611 c5.948,0,11.761-2.409,15.976-6.611c4.201-4.201,6.612-10.029,6.612-15.962C338.809,227.433,336.398,221.606,332.197,217.404z"/>
		</g>
	</g>
</svg>