<?xml version="1.0" ?><!DOCTYPE svg  PUBLIC '-//W3C//DTD SVG 1.0//EN'  'http://www.w3.org/TR/2001/REC-SVG-20010904/DTD/svg10.dtd'><svg height="64px" style="shape-rendering:geometricPrecision; text-rendering:geometricPrecision; image-rendering:optimizeQuality; fill-rule:evenodd; clip-rule:evenodd" version="1.0" viewBox="0 0 4017 7130" width="36px" xml:space="preserve" xmlns="http://www.w3.org/2000/svg" xmlns:xlink="http://www.w3.org/1999/xlink"><defs><style type="text/css">
   <![CDATA[
    .fil0 {fill:#27afb7;fill-rule:nonzero}
   ]]>
  </style></defs><g id="Layer_x0020_1"><path class="fil0" d="M1904 1674l0 1627c42,-24 87,-41 132,-53 102,-27 209,-25 308,-1 100,24 192,72 261,137 20,19 38,39 54,60 31,-23 65,-41 100,-53 66,-23 138,-27 208,-13l0 0c68,14 135,45 193,92 58,47 107,109 141,187 40,-30 81,-51 123,-66l8 -2c79,-25 161,-26 237,-3 77,23 149,69 206,134 84,96 140,236 140,406l0 1381c0,130 -57,349 -146,525l0 0 0 0c-59,117 -134,218 -221,274l0 713c0,61 -50,111 -111,111l-11 -1 -2145 0c-61,0 -111,-50 -111,-111l-1 0 0 -617 -431 -379c-9,-8 -17,-18 -23,-28l0 0 -727 -1268c-24,-34 -43,-74 -55,-113l-2 -7c-12,-42 -19,-86 -19,-127l0 -1118c0,-61 50,-111 111,-111l3 0 342 0c125,0 232,48 310,127 78,80 124,191 124,314l0 485 112 82 0 -2574c0,-215 119,-354 270,-416 56,-23 117,-34 178,-34 61,0 122,11 178,33 148,60 263,196 263,407zm848 -986c53,-31 121,-12 152,40 31,53 12,121 -40,152l-674 389c-53,31 -121,12 -152,-40 -31,-53 -12,-121 40,-152l674 -389zm111 1557c53,30 71,98 41,151 -30,53 -98,71 -151,41l-674 -389c-53,-30 -71,-98 -41,-151 30,-53 98,-71 151,-41l674 389zm-2696 192c-53,31 -121,12 -152,-40 -31,-53 -12,-121 40,-152l674 -389c53,-31 121,-12 152,40 31,53 12,121 -40,152l-674 389zm-111 -1557c-53,-30 -71,-98 -41,-151 30,-53 98,-71 151,-41l674 389c53,30 71,98 41,151 -30,53 -98,71 -151,41l-674 -389zm1292 -769c0,-61 50,-111 111,-111 61,0 111,50 111,111l0 778c0,61 -50,111 -111,111 -61,0 -111,-50 -111,-111l0 -778zm2446 5396l0 -1381c0,-113 -33,-202 -84,-260 -29,-34 -65,-57 -102,-68 -34,-10 -71,-10 -107,1l-4 2c-56,19 -113,66 -159,145 -18,37 -56,63 -100,63 -61,0 -111,-50 -111,-111 0,-120 -17,-286 -203,-302 -32,-6 -64,-5 -93,5 -41,14 -77,48 -97,102 -12,48 -56,85 -108,85 -61,0 -111,-50 -111,-111 0,-50 -24,-95 -62,-130 -41,-39 -98,-68 -161,-83 -64,-15 -134,-16 -200,1 -79,21 -152,70 -201,154 -19,35 -56,59 -98,59 -61,0 -111,-50 -111,-111l0 -1890c0,-106 -55,-173 -124,-201 -30,-12 -63,-18 -94,-18 -32,0 -64,7 -95,19 -73,30 -130,100 -130,210l0 2792 0 0c0,23 -7,46 -21,66 -36,49 -106,60 -155,24l-328 -239c-31,-20 -52,-55 -52,-94l0 -541c0,-64 -22,-120 -60,-159 -36,-37 -88,-59 -151,-59l-234 0 0 1007c0,21 3,43 10,64l1 3c6,19 14,37 24,52 4,5 7,9 10,15l720 1255 493 483 0 556 1934 0 0 -660c0,-50 34,-107 84,-120 52,-13 110,-94 161,-195l0 0m0 0c73,-146 121,-323 121,-425"/></g></svg>