<?xml version="1.0" encoding="utf-8"?>
<!-- Generator: Adobe Illustrator 17.0.0, SVG Export Plug-In . SVG Version: 6.00 Build 0)  -->
<!DOCTYPE svg PUBLIC "-//W3C//DTD SVG 1.1//EN" "http://www.w3.org/Graphics/SVG/1.1/DTD/svg11.dtd">
<svg version="1.1" id="Layer_1" xmlns="http://www.w3.org/2000/svg" xmlns:xlink="http://www.w3.org/1999/xlink" x="0px" y="0px"
	 width="20px" height="20px" viewBox="0 0 20 20" enable-background="new 0 0 20 20" xml:space="preserve">
<path fill="none" stroke="#000000" stroke-width="2" stroke-miterlimit="10" d="M6,5.444C6,3.481,7.377,2,10,2
	c2.557,0,4,1.481,4,3.444S12.613,10,10,10C7.488,10,6,7.408,6,5.444z"/>
<path fill="none" stroke="#000000" stroke-width="2" stroke-linecap="round" stroke-miterlimit="10" d="M17.049,13.366
	c0,0-1.22-0.395-2.787-0.761C13.1,13.461,11.678,14,10,14c-1.623,0-3.028-0.546-4.192-1.411c-1.601,0.37-2.857,0.777-2.857,0.777
	C2.428,13.536,2,14.125,2,14.675V17c0,0.55,0.45,1,1,1h14c0.55,0,1-0.45,1-1v-2.325C18,14.125,17.572,13.536,17.049,13.366z"/>
</svg>
