<?xml version="1.0" encoding="utf-8"?>
<!-- Generator: Adobe Illustrator 17.0.0, SVG Export Plug-In . SVG Version: 6.00 Build 0)  -->
<!DOCTYPE svg PUBLIC "-//W3C//DTD SVG 1.1//EN" "http://www.w3.org/Graphics/SVG/1.1/DTD/svg11.dtd">
<svg version="1.1" id="Layer_1" xmlns="http://www.w3.org/2000/svg" xmlns:xlink="http://www.w3.org/1999/xlink" x="0px" y="0px"
	 width="40px" height="40px" viewBox="0 0 40 40" enable-background="new 0 0 40 40" xml:space="preserve">
<g>
	<path d="M20,40C8.972,40,0,31.028,0,20C0,8.972,8.972,0,20,0c11.028,0,20,8.972,20,20C40,31.028,31.028,40,20,40z M20,2
		C10.075,2,2,10.075,2,20c0,9.925,8.075,18,18,18c9.925,0,18-8.075,18-18C38,10.075,29.925,2,20,2z"/>
</g>
<g>
	<path fill="none" stroke="#000000" stroke-width="2" stroke-miterlimit="10" d="M14,24.5"/>
</g>
<g>
	<rect x="19" y="15" width="2" height="6"/>
</g>
<g>
	<rect x="19" y="23" width="2" height="2"/>
</g>
<g>
	<path d="M26,29H14c-1.673,0-3.016-0.648-3.684-1.778s-0.589-2.618,0.218-4.085l6.18-11.238c0.825-1.5,1.992-2.325,3.286-2.325
		c1.294,0,2.461,0.825,3.285,2.325l6.182,11.238c0.807,1.467,0.886,2.955,0.218,4.085S27.674,29,26,29z M20,11.574
		c-0.524,0-1.083,0.47-1.534,1.289l-6.18,11.238c-0.457,0.831-0.548,1.598-0.249,2.104C12.336,26.71,13.052,27,14,27h12
		c0.948,0,1.664-0.29,1.963-0.796s0.209-1.272-0.248-2.103l-6.182-11.239C21.082,12.044,20.523,11.574,20,11.574z"/>
</g>
</svg>
