<?xml version="1.0" encoding="utf-8"?>
<!-- Generator: Adobe Illustrator 17.0.0, SVG Export Plug-In . SVG Version: 6.00 Build 0)  -->
<!DOCTYPE svg PUBLIC "-//W3C//DTD SVG 1.1//EN" "http://www.w3.org/Graphics/SVG/1.1/DTD/svg11.dtd">
<svg version="1.1" id="Layer_1" xmlns="http://www.w3.org/2000/svg" xmlns:xlink="http://www.w3.org/1999/xlink" x="0px" y="0px"
	 width="40px" height="10px" viewBox="0 0 40 10" enable-background="new 0 0 40 10" xml:space="preserve">
<rect fill="none" width="40" height="10"/>
<g>
	<path d="M40,8c-2.415,0-3.687-1.271-4.708-2.293C34.337,4.753,33.583,4,31.997,4s-2.34,0.753-3.294,1.707
		C27.681,6.729,26.409,8,23.994,8c-2.414,0-3.685-1.271-4.706-2.293C18.335,4.753,17.582,4,15.997,4
		c-1.586,0-2.339,0.753-3.293,1.707C11.683,6.729,10.411,8,7.997,8C5.583,8,4.313,6.729,3.292,5.707C2.338,4.753,1.585,4,0,4V2
		c2.414,0,3.685,1.271,4.706,2.293C5.659,5.247,6.412,6,7.997,6c1.586,0,2.339-0.753,3.293-1.707C12.312,3.271,13.583,2,15.997,2
		c2.414,0,3.685,1.271,4.706,2.293C21.656,5.247,22.409,6,23.994,6c1.586,0,2.34-0.753,3.294-1.707C28.311,3.271,29.582,2,31.997,2
		s3.687,1.271,4.708,2.293C37.66,5.247,38.414,6,40,6V8z"/>
</g>
</svg>
