<?xml version="1.0" encoding="utf-8"?>
<!DOCTYPE svg PUBLIC "-//W3C//DTD SVG 1.1//EN" "http://www.w3.org/Graphics/SVG/1.1/DTD/svg11.dtd">
<svg id="shop-cart-2" viewBox="0 0 330 330" xmlns="http://www.w3.org/2000/svg" xmlns:xlink="http://www.w3.org/1999/xlink" x="0px" y="0px"
	 width="330px" height="330px" enable-background="new 0 0 330 330" xml:space="preserve">
	<path id="XMLID_928_" d="M315,0h-40c-8.284,0-15,6.716-15,15v25H15c-5.024,0-9.715,2.516-12.495,6.701 c-2.78,4.186-3.279,9.485-1.331,14.116l58.896,140c2.341,5.564,7.79,9.184,13.826,9.184H260v29.999H46c-8.284,0-15,6.716-15,15 s6.716,15,15,15h17.58c-1.665,4.695-2.58,9.742-2.58,15c0,24.813,20.187,45,45,45s45-20.187,45-45c0-5.258-0.915-10.305-2.58-15 h34.16c-1.665,4.695-2.58,9.742-2.58,15c0,24.813,20.187,45,45,45s45-20.187,45-45c0-5.258-0.915-10.305-2.58-15H275 c8.284,0,15-6.716,15-15V195v-90V30h25c8.284,0,15-6.716,15-15S323.284,0,315,0z M83.859,180L37.583,70H260v35v75H83.859z M121,284.999c0,8.271-6.729,15-15,15s-15-6.729-15-15s6.729-15,15-15S121,276.728,121,284.999z M240,284.999 c0,8.271-6.729,15-15,15c-8.271,0-15-6.729-15-15s6.729-15,15-15C233.271,269.999,240,276.728,240,284.999z"/>
</svg>