<?xml version="1.0" encoding="utf-8"?>
<!DOCTYPE svg PUBLIC "-//W3C//DTD SVG 1.1//EN" "http://www.w3.org/Graphics/SVG/1.1/DTD/svg11.dtd">
<svg id="shop-bag-2" viewBox="0 0 501.654 501.654" xmlns="http://www.w3.org/2000/svg" xmlns:xlink="http://www.w3.org/1999/xlink" x="0px" y="0px"
	 width="501.654px" height="501.654px" enable-background="new 0 0 501.654 501.654" xml:space="preserve">
	<path d="M501.494,441.76l-28.8-270.933c-3.2-28.8-32-50.133-67.2-50.133h-4.267C377.76,50.293,319.093,0.16,250.827,0.16 s-126.933,50.133-150.4,120.533H96.16c-35.2,0-64,21.333-67.2,50.133L0.16,441.76c-1.067,13.867,3.2,26.667,12.8,37.333 c12.8,13.867,33.067,22.4,54.4,22.4h366.933c21.333,0,41.6-8.533,54.4-22.4C498.294,468.427,502.56,455.627,501.494,441.76z M250.827,40.693c45.867,0,86.4,33.067,106.667,80H144.16C164.427,73.76,204.96,40.693,250.827,40.693z M456.693,451.36 c-3.2,4.267-11.733,8.533-23.467,8.533H67.36c-11.733,0-20.267-4.267-23.467-8.533c-1.067-2.133-2.133-4.267-2.133-5.333 l28.8-269.867c0-4.267,8.533-10.667,20.267-12.8c-1.067,7.467-2.133,16-2.133,24.533c0,11.733,9.6,21.333,21.333,21.333 s21.333-9.6,21.333-21.333c0-8.533,1.067-17.067,2.133-25.6H368.16c1.067,8.533,2.133,17.067,2.133,25.6 c0,11.733,9.6,21.333,21.333,21.333c11.733,0,20.267-8.533,20.267-20.267c0-8.533-1.067-18.133-2.133-26.667 c11.733,1.067,20.267,7.467,20.267,12.8l28.8,270.933C458.827,448.16,458.827,449.227,456.693,451.36z"/>
</svg>